<svg width="179" height="40" viewBox="0 0 179 40" fill="none" xmlns="http://www.w3.org/2000/svg">
<path d="M19.4565 32.075V7.97858H25.4538C27.5243 7.97858 29.2557 8.28202 30.6479 8.88889C32.0758 9.46006 33.2182 10.299 34.0749 11.4056C34.9317 12.5123 35.5386 13.851 35.8956 15.4217C36.2882 16.9567 36.4846 18.6881 36.4846 20.6158C36.4846 22.722 36.2168 24.5069 35.6814 25.9705C35.1459 27.4342 34.4319 28.6301 33.5395 29.5582C32.647 30.4507 31.6296 31.0933 30.4872 31.4859C29.3449 31.8786 28.1669 32.075 26.9531 32.075H19.4565ZM11.0495 0.910306V39.1432H27.5421C30.4694 39.1432 33.004 38.6613 35.1459 37.6975C37.3235 36.6979 39.1263 35.3414 40.5542 33.6278C42.0178 31.9143 43.1066 29.8795 43.8206 27.5234C44.5346 25.1673 44.8915 22.5971 44.8915 19.8126C44.8915 16.6354 44.4453 13.8688 43.5528 11.5127C42.6961 9.15662 41.4823 7.19322 39.9116 5.62249C38.3766 4.05176 36.5381 2.87372 34.3962 2.08835C32.29 1.30299 30.0053 0.910306 27.5421 0.910306H11.0495Z" fill="#D04780"/>
<path d="M19.4565 32.075V7.97858H25.4538C27.5243 7.97858 29.2557 8.28202 30.6479 8.88889C32.0758 9.46006 33.2182 10.299 34.0749 11.4056C34.9317 12.5123 35.5386 13.851 35.8956 15.4217C36.2882 16.9567 36.4846 18.6881 36.4846 20.6158C36.4846 22.722 36.2168 24.5069 35.6814 25.9705C35.1459 27.4342 34.4319 28.6301 33.5395 29.5582C32.647 30.4507 31.6296 31.0933 30.4872 31.4859C29.3449 31.8786 28.1669 32.075 26.9531 32.075H19.4565ZM11.0495 0.910306V39.1432H27.5421C30.4694 39.1432 33.004 38.6613 35.1459 37.6975C37.3235 36.6979 39.1263 35.3414 40.5542 33.6278C42.0178 31.9143 43.1066 29.8795 43.8206 27.5234C44.5346 25.1673 44.8915 22.5971 44.8915 19.8126C44.8915 16.6354 44.4453 13.8688 43.5528 11.5127C42.6961 9.15662 41.4823 7.19322 39.9116 5.62249C38.3766 4.05176 36.5381 2.87372 34.3962 2.08835C32.29 1.30299 30.0053 0.910306 27.5421 0.910306H11.0495Z" fill="url(#paint0_linear)"/>
<path d="M60.3781 24.3641L65.358 10.3347H65.4651L70.2844 24.3641H60.3781ZM61.1813 0.910306L46.7234 39.1432H55.184L58.1826 30.6292H72.4798L75.3714 39.1432H84.0996L69.8024 0.910306H61.1813Z" fill="#D04780"/>
<path d="M60.3781 24.3641L65.358 10.3347H65.4651L70.2844 24.3641H60.3781ZM61.1813 0.910306L46.7234 39.1432H55.184L58.1826 30.6292H72.4798L75.3714 39.1432H84.0996L69.8024 0.910306H61.1813Z" fill="url(#paint1_linear)"/>
<path d="M87.3966 0.910306V39.1432H95.8035V0.910306H87.3966Z" fill="#D04780"/>
<path d="M87.3966 0.910306V39.1432H95.8035V0.910306H87.3966Z" fill="url(#paint2_linear)"/>
<path d="M103.189 0.910306V39.1432H111.06V13.5475H111.167L127.071 39.1432H135.478V0.910306H127.607V26.5596H127.499L111.542 0.910306H103.189Z" fill="#D04780"/>
<path d="M103.189 0.910306V39.1432H111.06V13.5475H111.167L127.071 39.1432H135.478V0.910306H127.607V26.5596H127.499L111.542 0.910306H103.189Z" fill="url(#paint3_linear)"/>
<path d="M149.626 20.1874C149.626 18.5096 149.804 16.8853 150.161 15.3146C150.554 13.7439 151.161 12.3516 151.982 11.1379C152.803 9.88844 153.874 8.90674 155.195 8.19277C156.516 7.44311 158.122 7.06827 160.014 7.06827C161.906 7.06827 163.513 7.44311 164.833 8.19277C166.154 8.90674 167.225 9.88844 168.046 11.1379C168.867 12.3516 169.456 13.7439 169.813 15.3146C170.206 16.8853 170.402 18.5096 170.402 20.1874C170.402 21.7938 170.206 23.3646 169.813 24.8996C169.456 26.3989 168.867 27.7555 168.046 28.9692C167.225 30.183 166.154 31.1647 164.833 31.9143C163.513 32.6283 161.906 32.9853 160.014 32.9853C158.122 32.9853 156.516 32.6283 155.195 31.9143C153.874 31.1647 152.803 30.183 151.982 28.9692C151.161 27.7555 150.554 26.3989 150.161 24.8996C149.804 23.3646 149.626 21.7938 149.626 20.1874ZM141.219 20.1874C141.219 22.9719 141.647 25.5779 142.504 28.0054C143.361 30.3971 144.592 32.4855 146.199 34.2704C147.805 36.0553 149.769 37.4654 152.089 38.5007C154.445 39.5002 157.087 40 160.014 40C162.977 40 165.619 39.5002 167.939 38.5007C170.26 37.4654 172.223 36.0553 173.829 34.2704C175.436 32.4855 176.667 30.3971 177.524 28.0054C178.381 25.5779 178.809 22.9719 178.809 20.1874C178.809 17.3315 178.381 14.6899 177.524 12.2624C176.667 9.7992 175.436 7.6573 173.829 5.83668C172.223 4.01606 170.26 2.58813 167.939 1.55288C165.619 0.517626 162.977 0 160.014 0C157.087 0 154.445 0.517626 152.089 1.55288C149.769 2.58813 147.805 4.01606 146.199 5.83668C144.592 7.6573 143.361 9.7992 142.504 12.2624C141.647 14.6899 141.219 17.3315 141.219 20.1874Z" fill="#D04780"/>
<path d="M149.626 20.1874C149.626 18.5096 149.804 16.8853 150.161 15.3146C150.554 13.7439 151.161 12.3516 151.982 11.1379C152.803 9.88844 153.874 8.90674 155.195 8.19277C156.516 7.44311 158.122 7.06827 160.014 7.06827C161.906 7.06827 163.513 7.44311 164.833 8.19277C166.154 8.90674 167.225 9.88844 168.046 11.1379C168.867 12.3516 169.456 13.7439 169.813 15.3146C170.206 16.8853 170.402 18.5096 170.402 20.1874C170.402 21.7938 170.206 23.3646 169.813 24.8996C169.456 26.3989 168.867 27.7555 168.046 28.9692C167.225 30.183 166.154 31.1647 164.833 31.9143C163.513 32.6283 161.906 32.9853 160.014 32.9853C158.122 32.9853 156.516 32.6283 155.195 31.9143C153.874 31.1647 152.803 30.183 151.982 28.9692C151.161 27.7555 150.554 26.3989 150.161 24.8996C149.804 23.3646 149.626 21.7938 149.626 20.1874ZM141.219 20.1874C141.219 22.9719 141.647 25.5779 142.504 28.0054C143.361 30.3971 144.592 32.4855 146.199 34.2704C147.805 36.0553 149.769 37.4654 152.089 38.5007C154.445 39.5002 157.087 40 160.014 40C162.977 40 165.619 39.5002 167.939 38.5007C170.26 37.4654 172.223 36.0553 173.829 34.2704C175.436 32.4855 176.667 30.3971 177.524 28.0054C178.381 25.5779 178.809 22.9719 178.809 20.1874C178.809 17.3315 178.381 14.6899 177.524 12.2624C176.667 9.7992 175.436 7.6573 173.829 5.83668C172.223 4.01606 170.26 2.58813 167.939 1.55288C165.619 0.517626 162.977 0 160.014 0C157.087 0 154.445 0.517626 152.089 1.55288C149.769 2.58813 147.805 4.01606 146.199 5.83668C144.592 7.6573 143.361 9.7992 142.504 12.2624C141.647 14.6899 141.219 17.3315 141.219 20.1874Z" fill="url(#paint4_linear)"/>
<path d="M11.8857 38.5C8.24721 38.5 2 32.1341 2 32.1341C2 32.1341 10.7777 30.3733 10.0321 26.6488C9.59813 24.4806 6.11904 22.5565 6.11904 22.5565L10.0321 18.6167L3.64762 13.8496C3.64762 13.8496 9.73671 12.6527 10.0321 9.69207C10.3024 6.98344 5.95038 4.56526 5.95038 4.56526C5.95038 4.56526 8.31586 0.60758 11.8857 1.50001" stroke="#D04780"/>
<defs>
<linearGradient id="paint0_linear" x1="10.9245" y1="19.5091" x2="178.707" y2="19.5091" gradientUnits="userSpaceOnUse">
<stop stop-color="#D04780"/>
<stop offset="1" stop-color="#68B04B"/>
</linearGradient>
<linearGradient id="paint1_linear" x1="10.9245" y1="19.5091" x2="178.707" y2="19.5091" gradientUnits="userSpaceOnUse">
<stop stop-color="#D04780"/>
<stop offset="1" stop-color="#68B04B"/>
</linearGradient>
<linearGradient id="paint2_linear" x1="10.9245" y1="19.5091" x2="178.707" y2="19.5091" gradientUnits="userSpaceOnUse">
<stop stop-color="#D04780"/>
<stop offset="1" stop-color="#68B04B"/>
</linearGradient>
<linearGradient id="paint3_linear" x1="10.9245" y1="19.5091" x2="178.707" y2="19.5091" gradientUnits="userSpaceOnUse">
<stop stop-color="#D04780"/>
<stop offset="1" stop-color="#68B04B"/>
</linearGradient>
<linearGradient id="paint4_linear" x1="10.9245" y1="19.5091" x2="178.707" y2="19.5091" gradientUnits="userSpaceOnUse">
<stop stop-color="#D04780"/>
<stop offset="1" stop-color="#68B04B"/>
</linearGradient>
</defs>
</svg>
