<svg width="813" height="357" viewBox="0 0 813 357" fill="none" xmlns="http://www.w3.org/2000/svg">
<path d="M720.911 338.156C605.348 379.108 469.103 346.028 438.771 308.081C375.419 254.366 385.247 264.751 334.596 215.634C279.661 162.363 180.413 207.841 76.7799 189.255C-26.8532 170.668 -24.3256 137.952 76.7798 68.2524C177.885 -1.44711 437.377 -41.84 628.763 68.2523C835.636 187.254 871.098 284.934 720.911 338.156Z" fill="#CBDAFB"/>
<path d="M720.911 338.156C605.348 379.108 469.103 346.028 438.771 308.081C375.419 254.366 385.247 264.751 334.596 215.634C279.661 162.363 180.413 207.841 76.7799 189.255C-26.8532 170.668 -24.3256 137.952 76.7798 68.2524C177.885 -1.44711 437.377 -41.84 628.763 68.2523C835.636 187.254 871.098 284.934 720.911 338.156Z" fill="url(#paint0_linear)"/>
<defs>
<linearGradient id="paint0_linear" x1="416.052" y1="135.84" x2="343.761" y2="372.83" gradientUnits="userSpaceOnUse">
<stop stop-color="white"/>
<stop offset="1" stop-color="white" stop-opacity="0"/>
</linearGradient>
</defs>
</svg>
