<svg width="710" height="763" viewBox="0 0 710 763" fill="none" xmlns="http://www.w3.org/2000/svg">
<path d="M722.911 743.332C607.348 784.284 471.103 751.205 440.771 713.257C377.419 659.543 387.247 669.927 336.596 620.81C281.661 567.54 182.413 613.018 78.7799 594.431C-24.8532 575.845 -22.3256 543.128 78.7798 473.429C179.885 403.729 439.377 363.336 630.763 473.429C837.636 592.43 873.098 690.111 722.911 743.332Z" fill="#CBDAFB"/>
<path d="M722.911 743.332C607.348 784.284 471.103 751.205 440.771 713.257C377.419 659.543 387.247 669.927 336.596 620.81C281.661 567.54 182.413 613.018 78.7799 594.431C-24.8532 575.845 -22.3256 543.128 78.7798 473.429C179.885 403.729 439.377 363.336 630.763 473.429C837.636 592.43 873.098 690.111 722.911 743.332Z" fill="url(#paint0_linear)"/>
<path d="M61.351 325.391L17.9517 401.014L93.7773 446.112L138.205 368.713L61.351 325.391Z" stroke="black" stroke-width="2"/>
<path d="M65.7341 341.705L34.4549 397.082L59.7221 390.295L72.7452 367.807L95.2833 380.743L120.55 373.956L65.7341 341.705Z" stroke="black" stroke-width="2"/>
<path d="M17.9518 401.014L84.6316 404.592L138.673 368.588" stroke="black" stroke-width="2"/>
<path d="M197.365 280.638L122.62 272.143L81 125.178L171.884 2H377.433L476.811 90.3487L457.275 214.377L453.028 258.551L476.811 336.706L504.84 402.118L532.02 346.9L628 402.118L560.899 391.924L543.911 474.326L431.793 494.714V538.888L353.651 553.33L377.433 538.888H346.006L377.433 515.102V494.714L353.651 487.918L339.211 529.544L278.905 538.888L307.784 515.102H274.658L307.784 494.714L244.93 453.938L229.641 397.87L233.039 361.341L205.859 336.706L189.967 329.984L164.349 356.098L162.184 357.045L164.349 331.427L179.503 309.417H202.235L229.641 308.334L244.93 299.327L229.641 284.886M197.365 280.638L261.068 246.658L229.641 284.886M197.365 280.638L229.641 284.886M197.913 333.345L183.472 361.341L177.158 343.041" stroke="black" stroke-width="3"/>
<path d="M321.784 131.221C321.784 139.729 328.836 146.679 337.603 146.679C346.37 146.679 353.422 139.729 353.422 131.221C353.422 122.713 346.37 115.762 337.603 115.762C328.836 115.762 321.784 122.713 321.784 131.221Z" fill="black" stroke="black" stroke-width="3"/>
<circle r="6.49472" transform="matrix(-1 0 0 1 429.55 257.459)" fill="#68B04B"/>
<circle r="6.49472" transform="matrix(-1 0 0 1 406.458 341.891)" fill="#BC3D9A"/>
<circle r="6.49472" transform="matrix(-1 0 0 1 471.405 382.302)" fill="#F7E24D"/>
<circle r="3.24736" transform="matrix(-1 0 0 1 439.292 385.55)" fill="#96D47E"/>
<circle r="10.4637" transform="matrix(-1 0 0 1 412.592 292.459)" fill="#BC3D9A"/>
<circle r="10.4637" transform="matrix(-1 0 0 1 441.457 345.86)" fill="#68B04B"/>
<circle r="10.4637" transform="matrix(-1 0 0 1 467.436 422.353)" fill="#BC3D9A"/>
<circle r="4.69063" transform="matrix(-1 0 0 1 447.23 306.17)" fill="#68B04B"/>
<path d="M369.654 337.867L337.088 375.086L298.009 351.622L290.681 367.804L289.053 350.003L276.841 362.949L274.398 347.576L283.354 332.203L313.478 324.112L315.92 341.912L335.46 339.485L354.185 294.984" stroke="black" stroke-width="3"/>
<path d="M496.662 156.085L469.355 138.389L464.189 172.306L496.662 156.085Z" fill="#BC3D9A" stroke="black" stroke-width="3"/>
<path d="M484.394 147.77L467.075 154.987" stroke="black" stroke-width="3"/>
<path d="M490.889 152.1L465.632 164.007" stroke="black" stroke-width="3"/>
<path d="M500.992 192.151L464.549 173.028L458.416 210.192L500.992 192.151Z" fill="#68B04B" stroke="black" stroke-width="3"/>
<path d="M484.755 229.315L459.498 210.192L455.529 242.666L484.755 229.315Z" fill="#BC3D9A" stroke="black" stroke-width="3"/>
<path d="M470.799 249.667L455.821 242.016L454.3 259.014L470.799 249.667Z" fill="#BC3D9A" stroke="black" stroke-width="3"/>
<path d="M486.92 272.253L454.086 258.542L464.55 292.098L486.92 272.253Z" fill="#BC3D9A" stroke="black" stroke-width="3"/>
<path d="M507.524 301.544L464.255 291.672L477.112 335.73L507.524 301.544Z" fill="#68B04B" stroke="black" stroke-width="3"/>
<path d="M515.217 335.34L477.304 335.469L489.645 364.78L515.217 335.34Z" fill="#BC3D9A" stroke="black" stroke-width="3"/>
<path d="M512.899 362.818L489.807 364.622L504.6 399.982L512.899 362.818Z" fill="#BC3D9A" stroke="black" stroke-width="3"/>
<path d="M482.307 182.508L461.264 190.879" stroke="black" stroke-width="3"/>
<path d="M492.332 187.46L459.859 200.45" stroke="black" stroke-width="3"/>
<path d="M469.24 217.047L456.251 221.377" stroke="black" stroke-width="3"/>
<path d="M475.013 221.377L456.251 227.872" stroke="black" stroke-width="3"/>
<path d="M480.065 225.707L454.807 235.81" stroke="black" stroke-width="3"/>
<path d="M465.632 247.356L455.529 252.408" stroke="black" stroke-width="3"/>
<path d="M464.91 263.593L457.694 268.644" stroke="black" stroke-width="3"/>
<path d="M473.57 266.84L459.859 276.582" stroke="black" stroke-width="3"/>
<path d="M481.147 270.088L462.385 284.16" stroke="black" stroke-width="3"/>
<path d="M478.621 295.345L468.158 305.087" stroke="black" stroke-width="3"/>
<path d="M488.35 296.76L470.337 314.858" stroke="black" stroke-width="3"/>
<path d="M497.76 299.7L473.915 324.907" stroke="black" stroke-width="3"/>
<path d="M495.219 335.396L482.951 349.107" stroke="black" stroke-width="3"/>
<path d="M505.683 335.396L486.559 357.406" stroke="black" stroke-width="3"/>
<path d="M510.347 372.15L492.72 373.692" stroke="black" stroke-width="3"/>
<path d="M508.192 380.788L497.04 381.651" stroke="black" stroke-width="3"/>
<defs>
<linearGradient id="paint0_linear" x1="418.052" y1="541.016" x2="345.761" y2="778.006" gradientUnits="userSpaceOnUse">
<stop stop-color="white"/>
<stop offset="1" stop-color="white" stop-opacity="0"/>
</linearGradient>
</defs>
</svg>
